<svg t="1747903648966" class="icon" viewBox="0 0 1024 1024" version="1.1" xmlns="http://www.w3.org/2000/svg" p-id="5074" width="48px" height="48px">
<g transform="scale(1.1,1.1)">
<path d="M933.607782 393.636219c0-97.931426-79.384002-177.326685-177.306218-177.326685-26.130124 0-50.851155 5.821589-73.189929 15.97074-4.863774-93.566002-82.056877-168.019715-176.837544-168.019715-93.239568 0-169.503509 72.002894-176.608324 163.424046-19.310811-7.238868-40.137139-11.375072-61.968353-11.375072-97.921193 0-177.307242 79.394235-177.307242 177.326685 0 49.174979 20.040429 93.640704 52.375881 125.775588-32.335453 32.091906-52.375881 76.598562-52.375881 125.774565 0 97.891518 79.385025 177.285752 177.307242 177.285752 22.482037 0 43.910069-4.328585 63.700811-11.985986 13.471826 84.562954 86.528726 149.251256 174.875866 149.251256 88.940658 0 162.380274-65.567321 175.134763-150.937664 21.044292 8.809643 44.118823 13.672394 68.353784 13.672394 97.92017 0 177.307242-79.394235 177.307242-177.285752 0-47.607274-18.853393-90.732467-49.377594-122.558313C912.036487 490.263953 933.607782 444.536492 933.607782 393.636219zM511.999488 678.659741c-92.051509 0-166.67816-74.607208-166.67816-166.680207 0-92.03309 74.626651-166.67816 166.67816-166.67816 92.052532 0 166.679184 74.645071 166.679184 166.67816C678.678672 604.052532 604.052021 678.659741 511.999488 678.659741z" p-id="5075" 
fill="#ff8fb1">
</path>
</g>
</svg>