<svg width="24" height="24" viewBox="0 0 24 24" fill="none" xmlns="http://www.w3.org/2000/svg">
<g id="Mask group">
<mask id="mask0_1182_8733" style="mask-type:alpha" maskUnits="userSpaceOnUse" x="0" y="0" width="24" height="24">
<rect id="Rectangle 1138" width="24" height="24" fill="#D9D9D9"/>
</mask>
<g mask="url(#mask0_1182_8733)">
</g>
<mask id="mask1_1182_8733" style="mask-type:alpha" maskUnits="userSpaceOnUse" x="5" y="5" width="14" height="14">
<rect id="Rectangle 1067" x="5.5" y="5.5" width="13" height="13" fill="#D9D9D9" stroke="#87CD00"/>
</mask>
<g mask="url(#mask1_1182_8733)">
<g id="Vector">
<path d="M10.1749 6.00003C10.3324 6.00003 10.4835 6.06262 10.5949 6.17401C10.7063 6.28541 10.7689 6.43649 10.7689 6.59403C10.7689 6.75157 10.7063 6.90266 10.5949 7.01405C10.4835 7.12545 10.3324 7.18803 10.1749 7.18803H7.78196C7.62443 7.18803 7.47334 7.25061 7.36195 7.36201C7.25056 7.47341 7.18797 7.62449 7.18797 7.78203V16.098C7.18797 16.2555 7.25056 16.4066 7.36195 16.518C7.47334 16.6294 7.62443 16.692 7.78196 16.692H16.0978C16.2553 16.692 16.4064 16.6294 16.5178 16.518C16.6292 16.4066 16.6918 16.2555 16.6918 16.098V13.722C16.6918 13.5645 16.7543 13.4134 16.8657 13.302C16.9771 13.1906 17.1282 13.128 17.2857 13.128C17.4433 13.128 17.5944 13.1906 17.7057 13.302C17.8171 13.4134 17.8797 13.5645 17.8797 13.722V16.098C17.8797 16.5706 17.692 17.0239 17.3578 17.3581C17.0236 17.6923 16.5704 17.88 16.0978 17.88H7.78196C7.30936 17.88 6.85611 17.6923 6.52192 17.3581C6.18774 17.0239 6 16.5706 6 16.098V7.78203C6 7.30942 6.18774 6.85616 6.52192 6.52197C6.85611 6.18778 7.30936 6.00003 7.78196 6.00003H10.1749ZM17.3791 6.00682H17.4045C17.4247 6.00983 17.4446 6.01467 17.4639 6.02125H17.4724C17.4963 6.02811 17.5191 6.0381 17.5403 6.05095C17.5636 6.06149 17.5863 6.07339 17.6082 6.08659L17.6336 6.10186C17.6592 6.11942 17.682 6.14057 17.7015 6.16466L17.693 6.15023L17.7015 6.15872V6.16466L17.7524 6.21303L17.7694 6.23848C17.8027 6.28973 17.8311 6.34399 17.8543 6.40055V6.40651C17.8628 6.43196 17.8628 6.45826 17.8712 6.48457V6.50917C17.8781 6.53691 17.8809 6.56548 17.8797 6.59403V10.455C17.8797 10.6126 17.8171 10.7637 17.7057 10.8751C17.5944 10.9864 17.4433 11.049 17.2857 11.049C17.1282 11.049 16.9771 10.9864 16.8657 10.8751C16.7543 10.7637 16.6918 10.6126 16.6918 10.455V8.0281L12.3556 12.3601C12.2483 12.4669 12.1041 12.5287 11.9527 12.5328C11.8013 12.5369 11.654 12.483 11.541 12.3821L11.5156 12.3601C11.4068 12.2473 11.346 12.0967 11.346 11.94C11.346 11.7833 11.4068 11.6327 11.5156 11.52L15.8517 7.18802H13.4248C13.2723 7.18821 13.1256 7.12972 13.015 7.02467C12.9044 6.91962 12.8385 6.77606 12.8308 6.62372V6.59402C12.8308 6.43648 12.8934 6.2854 13.0048 6.174C13.1162 6.0626 13.2673 6.00002 13.4248 6.00002H17.2857C17.3142 5.99975 17.3426 6.00202 17.3706 6.00681H17.3791V6.00682Z" 
fill="currentColor"/>
<path d="M17.7015 6.16466C17.682 6.14057 17.6592 6.11942 17.6336 6.10186L17.6082 6.08659C17.5863 6.07339 17.5636 6.06149 17.5403 6.05095C17.5191 6.0381 17.4963 6.02811 17.4724 6.02125H17.4639C17.4446 6.01467 17.4247 6.00983 17.4045 6.00682H17.3791V6.00681H17.3706C17.3426 6.00202 17.3142 5.99975 17.2857 6.00002H13.4248C13.2673 6.00002 13.1162 6.0626 13.0048 6.174C12.8934 6.2854 12.8308 6.43648 12.8308 6.59402V6.62372C12.8385 6.77606 12.9044 6.91962 13.015 7.02467C13.1256 7.12972 13.2723 7.18821 13.4248 7.18802H15.8517L11.5156 11.52C11.4068 11.6327 11.346 11.7833 11.346 11.94C11.346 12.0967 11.4068 12.2473 11.5156 12.3601L11.541 12.3821C11.654 12.483 11.8013 12.5369 11.9527 12.5328C12.1041 12.5287 12.2483 12.4669 12.3556 12.3601L16.6918 8.0281V10.455C16.6918 10.6126 16.7543 10.7637 16.8657 10.8751C16.9771 10.9864 17.1282 11.049 17.2857 11.049C17.4433 11.049 17.5944 10.9864 17.7057 10.8751C17.8171 10.7637 17.8797 10.6126 17.8797 10.455V6.59403C17.8809 6.56548 17.8781 6.53691 17.8712 6.50917V6.48457C17.8628 6.45826 17.8628 6.43196 17.8543 6.40651V6.40055C17.8311 6.34399 17.8027 6.28973 17.7694 6.23848L17.7524 6.21303L17.7015 6.16466ZM17.7015 6.16466L17.693 6.15023L17.7015 6.15872V6.16466ZM10.1749 6.00003C10.3324 6.00003 10.4835 6.06262 10.5949 6.17401C10.7063 6.28541 10.7689 6.43649 10.7689 6.59403C10.7689 6.75157 10.7063 6.90266 10.5949 7.01405C10.4835 7.12545 10.3324 7.18803 10.1749 7.18803H7.78196C7.62443 7.18803 7.47334 7.25061 7.36195 7.36201C7.25056 7.47341 7.18797 7.62449 7.18797 7.78203V16.098C7.18797 16.2555 7.25056 16.4066 7.36195 16.518C7.47334 16.6294 7.62443 16.692 7.78196 16.692H16.0978C16.2553 16.692 16.4064 16.6294 16.5178 16.518C16.6292 16.4066 16.6918 16.2555 16.6918 16.098V13.722C16.6918 13.5645 16.7543 13.4134 16.8657 13.302C16.9771 13.1906 17.1282 13.128 17.2857 13.128C17.4433 13.128 17.5944 13.1906 17.7057 13.302C17.8171 13.4134 17.8797 13.5645 17.8797 13.722V16.098C17.8797 16.5706 17.692 17.0239 17.3578 17.3581C17.0236 17.6923 16.5704 17.88 16.0978 17.88H7.78196C7.30936 17.88 6.85611 17.6923 6.52192 17.3581C6.18774 17.0239 6 16.5706 6 16.098V7.78203C6 7.30942 6.18774 6.85616 6.52192 6.52197C6.85611 6.18778 7.30936 6.00003 7.78196 6.00003H10.1749Z" 
stroke="currentColor" stroke-width="0.6"/>
</g>
</g>
</g>
</svg>
